Coordinates
version=1
nRows=20
nColumns=38
inDegrees=no

Units are S.I. units (second, meters, Newtons, ...)
If the header above contains a line with 'inDegrees', this indicates whether rotational values are in degrees (yes) or radians (no).

endheader
time	pelvis_tilt	pelvis_list	pelvis_rotation	pelvis_tx	pelvis_ty	pelvis_tz	hip_flexion_r	hip_adduction_r	hip_rotation_r	knee_angle_r	ankle_angle_r	subtalar_angle_r	mtp_angle_r	hip_flexion_l	hip_adduction_l	hip_rotation_l	knee_angle_l	ankle_angle_l	subtalar_angle_l	mtp_angle_l	lumbar_extension	lumbar_bending	lumbar_rotation	arm_flex_r	arm_add_r	arm_rot_r	elbow_flex_r	pro_sup_r	wrist_flex_r	wrist_dev_r	arm_flex_l	arm_add_l	arm_rot_l	elbow_flex_l	pro_sup_l	wrist_flex_l	wrist_dev_l
1.14	2.57144	1.49559	-0.91951	0.728258	0.87068	1.03987	-0.114655	-0.0514887	0.0801525	0.837137	-0.698132	0	0	0.219949	-0.0676917	-0.322182	0.423939	-0.101972	0	0	-0.410365	-0.0395542	0.0320673	-0.139202	-0.409168	0.342572	0.697676	0.792712	0	0	-0.0371578	-0.47111	0.311245	0.680811	1.34768	0	0
1.15	2.53333	1.49834	-0.886511	0.726444	0.882631	1.04031	-0.0797702	-0.05087	0.0931495	0.879347	-0.698132	0	0	0.209693	-0.0680336	-0.333114	0.424355	-0.0900346	0	0	-0.406081	-0.0385365	0.0330506	-0.142368	-0.412945	0.333419	0.702896	0.797338	0	0	-0.0420269	-0.472708	0.300891	0.699714	1.35304	0	0
1.16	2.49514	1.49925	-0.851367	0.724587	0.894448	1.04109	-0.0480877	-0.0482303	0.104441	0.917201	-0.698132	0	0	0.197844	-0.0692872	-0.341025	0.421716	-0.0814543	0	0	-0.403383	-0.0357589	0.0323003	-0.143631	-0.417066	0.327542	0.706539	0.802145	0	0	-0.0457188	-0.474041	0.291234	0.717131	1.35922	0	0
1.17	2.44378	1.50014	-0.801183	0.72266	0.906103	1.04191	-0.015741	-0.0447258	0.113594	0.953996	-0.663989	0	0	0.187748	-0.0712995	-0.345596	0.419096	-0.07096	0	0	-0.400703	-0.0321027	0.0285148	-0.14243	-0.41998	0.322244	0.707834	0.81024	0	0	-0.0514208	-0.47431	0.274585	0.735787	1.37048	0	0
1.18	2.39375	1.50021	-0.749941	0.720596	0.917688	1.04284	0.0137551	-0.0412547	0.117094	0.986508	-0.599603	0	0	0.177775	-0.0734658	-0.345519	0.416468	-0.0616305	0	0	-0.39867	-0.027436	0.0215587	-0.139788	-0.422359	0.318594	0.70824	0.819326	0	0	-0.0581745	-0.473748	0.253809	0.754407	1.38558	0	0
1.19	2.41623	1.51142	-0.76879	0.718684	0.929842	1.04178	0.0151272	-0.0753542	0.138972	0.889666	-0.601414	0	0	0.17262	-0.0629372	-0.345448	0.416498	-0.0518608	0	0	-0.387911	-0.0347581	0.00922821	-0.146419	-0.423455	0.311802	0.717392	0.825917	0	0	-0.0708603	-0.48206	0.240861	0.781333	1.39183	0	0
1.2	2.31129	1.49652	-0.662424	0.716339	0.940637	1.04534	0.0667599	-0.0349163	0.113405	1.03154	-0.496217	0	0	0.154011	-0.0785925	-0.339042	0.409193	-0.0481051	0	0	-0.397858	-0.0149949	0.00815703	-0.134412	-0.428814	0.316019	0.709869	0.831476	0	0	-0.063507	-0.474482	0.228701	0.784944	1.40756	0	0
1.21	2.34363	1.5056	-0.69018	0.714319	0.952684	1.04485	0.0604508	-0.0702079	0.132539	0.917983	-0.496303	0	0	0.144803	-0.0678094	-0.338845	0.408162	-0.041335	0	0	-0.38984	-0.0210248	-0.00366855	-0.140812	-0.430087	0.310592	0.718875	0.834396	0	0	-0.071119	-0.483133	0.223728	0.806823	1.41188	0	0
1.22	2.2497	1.49068	-0.596443	0.712195	0.963084	1.04861	0.112467	-0.0292755	0.104059	1.05168	-0.418646	0	0	0.126299	-0.0827899	-0.33335	0.400267	-0.0399556	0	0	-0.399412	-0.0012576	-0.00160444	-0.128783	-0.435347	0.315059	0.711588	0.837237	0	0	-0.0585496	-0.477126	0.221421	0.806855	1.42306	0	0
1.23	2.22102	1.48766	-0.566851	0.710305	0.974147	1.05036	0.134619	-0.0268789	0.098306	1.05231	-0.39263	0	0	0.110878	-0.0844356	-0.330926	0.393303	-0.0374912	0	0	-0.400068	0.00548615	-0.00449775	-0.126507	-0.438403	0.31365	0.712929	0.837396	0	0	-0.0533686	-0.479046	0.222415	0.815517	1.42821	0	0
1.24	2.2035	1.48427	-0.548505	0.708438	0.985227	1.05219	0.155269	-0.0256741	0.0898324	1.04735	-0.369247	0	0	0.0935549	-0.0860164	-0.329758	0.383913	-0.035552	0	0	-0.401625	0.0124017	-0.00719939	-0.124933	-0.441604	0.31148	0.715643	0.837802	0	0	-0.0473519	-0.481462	0.225205	0.823444	1.43311	0	0
1.25	2.18098	1.48107	-0.52546	0.706697	0.99624	1.05395	0.175878	-0.0249141	0.0793784	1.03795	-0.347082	0	0	0.0766225	-0.0879216	-0.329411	0.372874	-0.0346188	0	0	-0.402627	0.0193428	-0.00915496	-0.123804	-0.444721	0.309085	0.718814	0.839352	0	0	-0.0405269	-0.48429	0.229268	0.830863	1.43747	0	0
1.26	2.15714	1.47776	-0.500758	0.705053	1.00721	1.05563	0.194963	-0.0242067	0.065993	1.02505	-0.323691	0	0	0.0597267	-0.090358	-0.329681	0.360739	-0.0348593	0	0	-0.403522	0.0264438	-0.0107326	-0.123439	-0.447437	0.305667	0.722828	0.84076	0	0	-0.0331555	-0.487554	0.234042	0.838437	1.44096	0	0
1.27	2.1347	1.47434	-0.47702	0.703427	1.01815	1.05725	0.213209	-0.0242933	0.0499762	1.00763	-0.300289	0	0	0.0425523	-0.0928422	-0.331069	0.347479	-0.0362197	0	0	-0.404433	0.0338057	-0.0119621	-0.123851	-0.450276	0.301842	0.727553	0.842708	0	0	-0.0252482	-0.490816	0.239197	0.8459	1.4438	0	0
1.28	2.11394	1.47114	-0.454287	0.701823	1.02903	1.05877	0.229944	-0.0251756	0.0304843	0.9863	-0.275669	0	0	0.0254525	-0.0952558	-0.333043	0.333952	-0.0384852	0	0	-0.405272	0.0412094	-0.0133188	-0.124872	-0.452614	0.297044	0.73269	0.844422	0	0	-0.0168128	-0.49435	0.244787	0.853291	1.44723	0	0
1.29	2.10204	1.46764	-0.43933	0.70022	1.03993	1.06024	0.244173	-0.0269973	0.00605335	0.961666	-0.251623	0	0	0.00730951	-0.097743	-0.335502	0.320116	-0.0412593	0	0	-0.406936	0.0488225	-0.0150675	-0.126228	-0.454557	0.291837	0.737802	0.845984	0	0	-0.00803205	-0.498284	0.250614	0.860824	1.45186	0	0
1.3	2.09785	1.46381	-0.43122	0.698616	1.05088	1.06168	0.25616	-0.0296168	-0.022677	0.933027	-0.230569	0	0	-0.0121601	-0.10019	-0.33771	0.305345	-0.0448831	0	0	-0.409574	0.0564595	-0.0171612	-0.127623	-0.455967	0.285825	0.742729	0.846089	0	0	0.000891694	-0.502023	0.25557	0.86867	1.45562	0	0
1.31	2.09643	1.46009	-0.424914	0.697045	1.06184	1.063	0.266337	-0.0327726	-0.0553692	0.899276	-0.213083	0	0	-0.0319267	-0.102862	-0.339846	0.290001	-0.0489302	0	0	-0.412505	0.0638307	-0.0196621	-0.12865	-0.457136	0.281017	0.746757	0.846874	0	0	0.00985998	-0.505594	0.259385	0.876712	1.4585	0	0
1.32	2.10375	1.45631	-0.426113	0.695456	1.07286	1.06428	0.272651	-0.0359834	-0.0929086	0.859404	-0.196778	0	0	-0.0528636	-0.105472	-0.340936	0.273791	-0.053937	0	0	-0.416482	0.0709559	-0.0230685	-0.129459	-0.457787	0.276608	0.750289	0.848369	0	0	0.0186963	-0.509146	0.262001	0.88491	1.46164	0	0
1.33	2.11272	1.45272	-0.42837	0.693947	1.08398	1.06537	0.276928	-0.038683	-0.132656	0.815163	-0.185586	0	0	-0.0739024	-0.108166	-0.342135	0.257762	-0.0585586	0	0	-0.42004	0.0775439	-0.0271659	-0.129848	-0.457648	0.272849	0.752398	0.848527	0	0	0.0268641	-0.512836	0.263666	0.893089	1.46514	0	0
